<svg width="14" height="12" viewBox="0 0 14 12" fill="none" xmlns="http://www.w3.org/2000/svg">
<path d="M12.9999 5H3.4099L5.7099 2.71C5.8982 2.5217 6.00399 2.2663 6.00399 2C6.00399 1.7337 5.8982 1.47831 5.7099 1.29C5.52159 1.1017 5.2662 0.995911 4.9999 0.995911C4.73359 0.995911 4.4782 1.1017 4.2899 1.29L0.289896 5.29C0.198856 5.38511 0.127491 5.49725 0.0798963 5.62C-0.0201217 5.86346 -0.0201217 6.13654 0.0798963 6.38C0.127491 6.50275 0.198856 6.6149 0.289896 6.71L4.2899 10.71C4.38286 10.8037 4.49346 10.8781 4.61532 10.9289C4.73718 10.9797 4.86788 11.0058 4.9999 11.0058C5.13191 11.0058 5.26261 10.9797 5.38447 10.9289C5.50633 10.8781 5.61693 10.8037 5.7099 10.71C5.80363 10.617 5.87802 10.5064 5.92879 10.3846C5.97956 10.2627 6.00569 10.132 6.00569 10C6.00569 9.86799 5.97956 9.73728 5.92879 9.61543C5.87802 9.49357 5.80363 9.38297 5.7099 9.29L3.4099 7H12.9999C13.2651 7 13.5195 6.89465 13.707 6.70711C13.8945 6.51957 13.9999 6.26522 13.9999 6C13.9999 5.73479 13.8945 5.48043 13.707 5.2929C13.5195 5.10536 13.2651 5 12.9999 5Z" fill="black"/>
</svg>
