<svg width="34" height="60" viewBox="0 0 34 60" fill="none" xmlns="http://www.w3.org/2000/svg">
<path d="M11.6487 59.2355C11.6357 59.3092 11.6182 59.3829 11.5978 59.4557H7.123C7.04812 59.3829 6.97414 59.3092 6.90206 59.2355C6.15866 58.4916 5.53562 57.6371 5.05518 56.7027C4.69626 55.9868 4.45322 55.2187 4.33509 54.4271C4.10215 52.8654 4.37206 51.2466 5.29367 49.9863C5.31678 49.954 5.34079 49.9218 5.36485 49.8904C5.37406 49.931 5.38426 49.9706 5.39536 50.0111C5.5347 50.5669 5.71925 51.1105 5.94718 51.6364C5.96384 51.6769 5.9814 51.7174 5.99985 51.758C6.55937 53.0134 7.34764 54.1546 8.32467 55.1236C8.54651 55.3438 8.77729 55.5538 9.017 55.7538C9.20188 55.9076 9.39168 56.055 9.58643 56.196C10.0486 56.5314 10.5607 56.8612 10.9647 57.2601C11.2786 57.551 11.5073 57.9213 11.6265 58.3317C11.6283 58.339 11.6302 58.3455 11.632 58.3528C11.7009 58.6425 11.7065 58.9435 11.6487 59.2355Z" fill="#F0F0F0"/>
<path d="M10.1439 59.2366C10.142 59.3103 10.1383 59.384 10.1328 59.4568H10.0256C10.032 59.3831 10.0367 59.3094 10.0385 59.2366C10.0438 59.1001 10.0388 58.9634 10.0237 58.8276C9.97287 58.3872 9.78895 57.9597 9.39884 57.7183C9.28485 57.6493 9.16327 57.5937 9.0365 57.5524C8.786 57.4677 8.51884 57.4234 8.26374 57.3617C8.20182 57.347 8.14079 57.3304 8.08162 57.3129C7.75056 57.2207 7.44343 57.0582 7.18131 56.8366C6.86512 56.5496 6.60007 56.2113 6.39745 55.836C6.26249 55.5992 6.13955 55.3551 6.0286 55.1054C6.01385 55.0731 5.99904 55.0409 5.98608 55.0086C5.30985 53.4265 5.0708 51.6927 5.29375 49.9874C5.29745 49.9542 5.30206 49.922 5.30666 49.8888C5.31592 49.8225 5.41855 49.8492 5.40835 49.9165C5.40375 49.9487 5.3991 49.98 5.39544 50.0123C5.305 50.7046 5.29167 51.4048 5.35568 52.1C5.35938 52.1359 5.36308 52.171 5.36584 52.205C5.46438 53.1678 5.71099 54.1096 6.09702 54.9976C6.10163 55.0077 6.10533 55.0169 6.11088 55.0271V55.0289C6.20237 55.2353 6.30128 55.438 6.4076 55.637C6.60092 56.0182 6.85328 56.3668 7.1554 56.6698C7.41099 56.9122 7.71948 57.0923 8.05666 57.1959C8.08997 57.206 8.12414 57.2161 8.15835 57.2254C8.18516 57.2336 8.21287 57.241 8.24063 57.2475C8.50038 57.312 8.76939 57.3571 9.02634 57.4391C9.143 57.4751 9.25622 57.5214 9.36468 57.5773C9.54182 57.6738 9.69644 57.8066 9.81832 57.967C9.94021 58.1274 10.0266 58.3117 10.0718 58.5078C10.1303 58.7462 10.1545 58.9915 10.1439 59.2366Z" fill="white"/>
<path d="M6.07582 55.0882C5.7593 55.2034 5.41199 55.2027 5.09593 55.0863C4.77986 54.9698 4.51562 54.7452 4.35038 54.4525C4.31716 54.3931 4.40812 54.3389 4.44139 54.3983C4.59475 54.6711 4.84091 54.8804 5.13545 54.9882C5.43 55.0961 5.75351 55.0954 6.04762 54.9864C6.11156 54.9628 6.1394 55.0647 6.07582 55.0882Z" fill="white"/>
<path d="M8.04307 57.2243C8.33908 56.6044 8.38979 55.896 8.18507 55.2405C8.16474 55.1755 8.26691 55.1475 8.28722 55.2124C8.49897 55.8949 8.4447 56.632 8.13524 57.2765C8.1057 57.3379 8.01369 57.2854 8.04307 57.2243Z" fill="white"/>
<path d="M5.32342 52.1048C5.45521 52.0857 5.58017 52.0342 5.68707 51.955C5.79397 51.8759 5.87947 51.7715 5.93589 51.6512C5.96463 51.5895 6.05662 51.642 6.02807 51.7033C5.96511 51.8359 5.87054 51.9511 5.75263 52.0388C5.63472 52.1266 5.49704 52.1842 5.35163 52.2066C5.3381 52.2099 5.32383 52.2079 5.31173 52.2011C5.29962 52.1942 5.29059 52.183 5.28646 52.1698C5.28279 52.1563 5.28462 52.1419 5.29154 52.1297C5.29846 52.1176 5.30992 52.1086 5.32342 52.1048Z" fill="white"/>
<path d="M13.5507 59.2355C13.5526 59.2843 13.5517 59.3322 13.5498 59.3801C13.5489 59.405 13.548 59.4308 13.5461 59.4557H9.35782C9.34026 59.382 9.32365 59.3092 9.307 59.2355C9.18108 58.6804 9.09062 58.1178 9.03614 57.5513C9.03244 57.5135 9.02874 57.4767 9.02598 57.438V57.4371C8.97714 56.8775 8.97404 56.3148 9.01673 55.7547V55.7538C9.04169 55.4479 9.08146 55.1439 9.13688 54.8398C9.28183 54.0583 9.54916 53.3044 9.92909 52.6056C9.93094 52.6028 9.93185 52.6001 9.9337 52.5973C10.6917 51.208 11.886 50.0747 13.3844 49.6205H13.3853L13.3862 49.6196C13.4241 49.6095 13.462 49.5984 13.4999 49.5873C13.4833 49.6251 13.4666 49.6647 13.4509 49.7034C13.45 49.7044 13.4491 49.7044 13.45 49.7053C13.226 50.2315 13.0454 50.775 12.9102 51.3305C12.8991 51.3738 12.888 51.4162 12.8788 51.4595V51.4604C12.5665 52.802 12.5069 54.1897 12.7031 55.5529C12.7438 55.8293 12.7947 56.1039 12.8557 56.3766C12.9139 56.6392 12.9832 56.899 13.0618 57.1561C13.2199 57.6711 13.4158 58.2101 13.5045 58.7417V58.7426C13.5327 58.9054 13.5481 59.0702 13.5507 59.2355Z" fill="#F0F0F0"/>
<path d="M13.5202 49.6336C13.4971 49.6566 13.474 49.6797 13.4509 49.7036C13.4499 49.7045 13.449 49.7045 13.4499 49.7055C12.96 50.2027 12.5272 50.7527 12.1595 51.3454C12.1401 51.3749 12.1216 51.4053 12.104 51.4357C11.5996 52.2637 11.2272 53.1647 11.0003 54.1066C10.9976 54.1159 10.9957 54.126 10.9929 54.1361C10.9412 54.3554 10.8977 54.5774 10.8626 54.8004C10.7865 55.2207 10.7771 55.6504 10.8349 56.0737C10.892 56.4208 11.0297 56.7499 11.237 57.0346C11.2407 57.0404 11.2447 57.0459 11.249 57.0512C11.2656 57.0742 11.2832 57.0982 11.3008 57.1203C11.3174 57.1424 11.335 57.1645 11.3525 57.1866C11.5984 57.4879 11.884 57.7689 12.0514 58.1245C12.1017 58.2316 12.1372 58.3451 12.1567 58.4618C12.1999 58.7223 12.1718 58.9897 12.0754 59.2357C12.068 59.2541 12.0606 59.2734 12.0532 59.2919C12.0301 59.3481 12.0042 59.4024 11.9765 59.4559H11.8563C11.8958 59.3848 11.9307 59.3112 11.9608 59.2357C12.0679 58.9847 12.0982 58.7077 12.0476 58.4396C12.0348 58.3774 12.0166 58.3163 11.9931 58.2572C11.848 57.8841 11.5531 57.5948 11.3026 57.2917C11.2499 57.2281 11.2 57.1636 11.1528 57.0973C10.9616 56.8361 10.8263 56.5384 10.7554 56.2229C10.6759 55.804 10.6684 55.3747 10.7332 54.9533C10.7683 54.6828 10.8176 54.4143 10.8811 54.149C10.8876 54.114 10.8959 54.0799 10.9051 54.0458C11.0612 53.4144 11.282 52.8006 11.5642 52.2142C12.0232 51.2553 12.6385 50.3789 13.3852 49.6207L13.3861 49.6198C13.4083 49.5967 13.4314 49.5737 13.4546 49.5507C13.5026 49.5028 13.5682 49.5857 13.5202 49.6336Z" fill="white"/>
<path d="M10.9282 54.1645C10.6059 54.0666 10.329 53.8576 10.147 53.575C9.96493 53.2923 9.88965 52.9544 9.93454 52.6215C9.94385 52.5542 10.0493 52.5654 10.0399 52.6328C9.99755 52.9427 10.0677 53.2575 10.2377 53.5204C10.4078 53.7832 10.6665 53.9769 10.9672 54.0663C11.0325 54.0858 10.9931 54.1839 10.9282 54.1645Z" fill="white"/>
<path d="M11.2084 57.0498C11.8193 56.7325 12.2876 56.1973 12.5202 55.551C12.5432 55.487 12.6417 55.5259 12.6187 55.5899C12.3755 56.2619 11.8869 56.8179 11.2505 57.1467C11.1899 57.178 11.1481 57.0809 11.2084 57.0498Z" fill="white"/>
<path d="M12.13 51.3309C12.2468 51.3947 12.3777 51.4286 12.5109 51.4295C12.644 51.4305 12.7754 51.3984 12.893 51.3363C12.9533 51.3042 12.995 51.4013 12.9352 51.4332C12.8048 51.5012 12.6597 51.5365 12.5126 51.5358C12.3654 51.535 12.2207 51.4984 12.091 51.4291C12.0783 51.4236 12.0681 51.4134 12.0626 51.4007C12.057 51.388 12.0566 51.3736 12.0613 51.3606C12.0665 51.3476 12.0766 51.3372 12.0895 51.3316C12.1024 51.3261 12.117 51.3258 12.13 51.3309Z" fill="white"/>
<path d="M17.4822 11.0872C19.6339 11.0872 21.3782 9.34867 21.3782 7.20404C21.3782 5.05942 19.6339 3.32086 17.4822 3.32086C15.3305 3.32086 13.5862 5.05942 13.5862 7.20404C13.5862 9.34867 15.3305 11.0872 17.4822 11.0872Z" fill="#2F2E41"/>
<path d="M15.7023 56.2306L14.1994 55.9184L14.6926 49.9919L16.9108 50.4528L15.7023 56.2306Z" fill="#FFB6B6"/>
<path d="M15.8633 55.4611L14.2734 55.0318L14.0192 54.9627L13.8075 55.9771L12.8554 56.3769L11.6916 56.8652L11.6897 56.8662L11.2488 57.0514L11.2239 57.0624C11.2091 57.0689 11.1952 57.0753 11.1813 57.0827H11.1804C11.1712 57.0873 11.1619 57.0928 11.1527 57.0974C11.0801 57.1395 11.0161 57.1948 10.9642 57.2605C10.8963 57.3473 10.8518 57.4498 10.8346 57.5584C10.8175 57.6671 10.8284 57.7783 10.8663 57.8816C10.9043 57.9849 10.9679 58.0769 11.0513 58.1489C11.1347 58.2209 11.2351 58.2706 11.3431 58.2933L11.6315 58.3532L12.0475 58.4398L12.1566 58.4619L13.5043 58.742V58.7429L14.1717 58.8811L14.8686 57.9782L14.8492 59.0212L15.8808 59.2358L15.916 59.2432L15.9169 59.2358L16.3661 55.5975L15.8633 55.4611Z" fill="#2F2E41"/>
<path d="M23.5493 54.6902L22.2319 55.4759L18.5645 50.7853L20.5087 49.6257L23.5493 54.6902Z" fill="#FFB6B6"/>
<path d="M25.7552 56.7604L23.6069 53.7762L23.1448 54.0157L21.6834 54.774L21.4495 54.8947L21.9838 55.7838L20.8218 58.3275C20.7801 58.419 20.7603 58.5188 20.764 58.6192C20.7678 58.7196 20.7948 58.8177 20.8432 58.9059C20.8915 58.994 20.9598 59.0697 21.0426 59.127C21.1253 59.1843 21.2203 59.2216 21.3201 59.236C21.3832 59.2452 21.4474 59.2452 21.5105 59.236C21.5943 59.2237 21.6747 59.1949 21.7472 59.1512L24.2263 57.6725L24.1255 56.5383L24.8207 57.3187L25.7552 56.7604Z" fill="#2F2E41"/>
<path d="M20.1274 27.7281L12.8919 27.4507L12.4745 19.9617H20.8231L20.1274 27.7281Z" fill="#FFB8B8"/>
<path d="M24.7201 32.8676C24.5945 32.7543 24.4953 32.6149 24.4296 32.4593C24.3639 32.3036 24.3332 32.1355 24.3397 31.9667C24.3462 31.798 24.3898 31.6327 24.4673 31.4825C24.5449 31.3324 24.6545 31.201 24.7885 31.0976L23.4749 27.207L25.5441 27.752L26.4743 31.3631C26.6336 31.599 26.7005 31.8849 26.6625 32.1667C26.6244 32.4485 26.4839 32.7065 26.2677 32.892C26.0515 33.0774 25.7745 33.1774 25.4892 33.1729C25.204 33.1684 24.9304 33.0598 24.7201 32.8676Z" fill="#FFB8B8"/>
<path d="M16.8871 11.254C18.4088 11.254 19.6425 10.0245 19.6425 8.5077C19.6425 6.99093 18.4088 5.76135 16.8871 5.76135C15.3653 5.76135 14.1317 6.99093 14.1317 8.5077C14.1317 10.0245 15.3653 11.254 16.8871 11.254Z" fill="#FFB8B8"/>
<path d="M19.697 6.6129L16.9018 4.43469L14.613 4.95451L13.6932 8.11125L15.0624 8.04307L15.4449 6.88847V8.024L16.0768 7.99258L16.4434 6.15444L16.6727 8.11125L18.9187 8.05192L19.697 6.6129Z" fill="#2F2E41"/>
<path d="M12.753 25.7877C12.753 25.7877 10.3425 29.9638 12.6697 36.3L19.098 52.6374L22.1711 50.8267L19.0385 43.7931L21.5866 35.1838C22.1734 33.2327 22.3543 31.1827 22.1182 29.1595C21.9346 27.6455 21.2045 26.9392 20.2667 25.5103C17.1355 27.5233 12.8882 26.7244 12.753 25.7877Z" fill="#2F2E41"/>
<path d="M15.9571 42.5487L13.8115 52.4826L16.9153 53.0658L18.6828 44.7149L15.9571 42.5487Z" fill="#2F2E41"/>
<path d="M18.8264 11.9565L15.2639 12.0038L14.1045 13.4712L12.2379 13.91L11.7528 16.7042C11.5102 18.1011 11.7677 18.9858 12.4803 20.2128L12.5656 22.6265L12.4713 22.7973C12.4247 22.8818 12.411 22.9804 12.4328 23.0743C12.4547 23.1681 12.5105 23.2507 12.5896 23.3061C12.5229 23.4739 12.5152 23.6593 12.5676 23.832L12.6136 23.9835C12.6136 23.9835 12.7463 25.0415 20.2683 23.9287C20.4279 23.9052 20.5754 23.8305 20.6885 23.7159C20.8016 23.6013 20.8741 23.4531 20.8951 23.2937C20.9769 23.2117 21.0307 23.1063 21.0491 22.9922C21.0675 22.878 21.0495 22.7611 20.9977 22.6577L20.9824 22.6271L21.0596 22.5365C21.1456 22.4356 21.1952 22.3089 21.2007 22.1767C21.2061 22.0444 21.1671 21.9141 21.0897 21.8065L22.1708 14.0985L19.9377 13.4053L18.8264 11.9565Z" fill="#3F3D56"/>
<path d="M21.2791 14.8363L22.1709 14.0985C22.1709 14.0985 22.9638 14.3321 23.5175 15.8887C24.0713 17.4453 25.9714 29.2535 25.9714 29.2535L23.7451 28.144L20.5883 19.4684L21.2791 14.8363Z" fill="#3F3D56"/>
<path d="M1.47318 27.408C1.64076 27.4329 1.81178 27.4209 1.97419 27.3728C2.13661 27.3247 2.28647 27.2416 2.41321 27.1296C2.53995 27.0175 2.6405 26.8791 2.70776 26.7241C2.77503 26.5691 2.80738 26.4013 2.80253 26.2325L6.65339 24.7764L4.91801 23.5279L1.52722 25.102C1.24323 25.1289 0.979022 25.2587 0.784639 25.4668C0.590257 25.6749 0.479209 25.9468 0.472547 26.2311C0.465885 26.5153 0.564071 26.7921 0.748492 27.009C0.932913 27.226 1.19076 27.3679 1.47318 27.408Z" fill="#FFB8B8"/>
<path d="M13.2722 14.7701L12.6677 13.7846C12.6677 13.7846 11.8416 13.7501 10.8126 15.0447C10.2851 15.7083 6.86666 21.4008 6.86666 21.4008L3.70538 24.0271L6.29361 24.9484L9.34402 23.6586L12.7642 18.0385L13.2722 14.7701Z" fill="#3F3D56"/>
<path d="M26.4145 7.81273C25.6031 6.89588 25.0904 5.76191 24.56 4.65954C24.0296 3.55718 23.4512 2.44343 22.5477 1.61659C21.6441 0.789748 20.3421 0.293882 19.1684 0.648957C17.9946 1.00403 17.1486 2.39874 17.6463 3.51613L17.6878 3.69541C20.5007 3.81127 23.2056 5.43748 24.6205 7.86332C25.2883 9.00832 25.7013 10.3336 26.6458 11.2652C27.1451 11.7577 27.7662 12.1097 28.4461 12.2856C29.1261 12.4614 29.8406 12.4547 30.5171 12.2663C31.1937 12.0779 31.8081 11.7143 32.2981 11.2126C32.7881 10.711 33.1361 10.089 33.3069 9.40985C30.9803 10.3661 28.0793 9.6939 26.4145 7.81273Z" fill="#2F2E41"/>
<path d="M33.9999 59.3457C33.9999 59.3748 33.9883 59.4028 33.9677 59.4235C33.9471 59.4442 33.9192 59.4559 33.8899 59.4562H1.23204C1.20275 59.4562 1.17465 59.4446 1.15394 59.424C1.13322 59.4033 1.12158 59.3753 1.12158 59.3461C1.12158 59.3169 1.13322 59.2889 1.15394 59.2683C1.17465 59.2476 1.20275 59.236 1.23204 59.236H33.8899C33.919 59.2363 33.9469 59.2479 33.9674 59.2684C33.988 59.2889 33.9997 59.3167 33.9999 59.3457Z" fill="#3F3D56"/>
</svg>
