<svg width="13" height="13" viewBox="0 0 13 13" fill="none" xmlns="http://www.w3.org/2000/svg">
<g clip-path="url(#clip0_14_462)">
<path d="M9.20831 1.08331H3.79165C2.29588 1.08331 1.08331 2.29588 1.08331 3.79165V9.20831C1.08331 10.7041 2.29588 11.9166 3.79165 11.9166H9.20831C10.7041 11.9166 11.9166 10.7041 11.9166 9.20831V3.79165C11.9166 2.29588 10.7041 1.08331 9.20831 1.08331Z" stroke="black" stroke-linecap="round" stroke-linejoin="round"/>
<path d="M8.66665 6.15873C8.7335 6.60953 8.6565 7.06993 8.44661 7.47445C8.23671 7.87897 7.90461 8.207 7.49753 8.41189C7.09046 8.61678 6.62914 8.6881 6.1792 8.6157C5.72926 8.5433 5.3136 8.33086 4.99136 8.00861C4.66911 7.68636 4.45667 7.27071 4.38427 6.82076C4.31187 6.37082 4.38319 5.90951 4.58808 5.50243C4.79297 5.09536 5.121 4.76326 5.52552 4.55336C5.93003 4.34347 6.39044 4.26647 6.84124 4.33331C7.30107 4.4015 7.72678 4.61577 8.05549 4.94448C8.38419 5.27319 8.59847 5.6989 8.66665 6.15873Z" stroke="black" stroke-linecap="round" stroke-linejoin="round"/>
<path d="M9.47919 3.52081H9.49256" stroke="black" stroke-width="2" stroke-linecap="round" stroke-linejoin="round"/>
</g>
<defs>
<clipPath id="clip0_14_462">
<rect width="13" height="13" fill="white"/>
</clipPath>
</defs>
</svg>
