<svg width="106" height="72" viewBox="0 0 106 72" fill="none" xmlns="http://www.w3.org/2000/svg">
<g clip-path="url(#clip0_14_402)">
<path d="M77.7705 0.0415039H0.0331421V46.9937H77.7705V0.0415039Z" fill="#E6E6E6"/>
<path d="M75.5476 5.93048H2.25604V44.216H75.5476V5.93048Z" fill="white"/>
<path d="M77.7373 0H0V3.11453H77.7373V0Z" fill="#FFC700"/>
<path d="M2.45432 2.16969C2.7924 2.16969 3.06648 1.91122 3.06648 1.59238C3.06648 1.27355 2.7924 1.01508 2.45432 1.01508C2.11623 1.01508 1.84216 1.27355 1.84216 1.59238C1.84216 1.91122 2.11623 2.16969 2.45432 2.16969Z" fill="white"/>
<path d="M4.77762 2.16969C5.11571 2.16969 5.38978 1.91122 5.38978 1.59238C5.38978 1.27355 5.11571 1.01508 4.77762 1.01508C4.43954 1.01508 4.16547 1.27355 4.16547 1.59238C4.16547 1.91122 4.43954 2.16969 4.77762 2.16969Z" fill="white"/>
<path d="M7.10099 2.16969C7.43907 2.16969 7.71314 1.91122 7.71314 1.59238C7.71314 1.27355 7.43907 1.01508 7.10099 1.01508C6.7629 1.01508 6.48883 1.27355 6.48883 1.59238C6.48883 1.91122 6.7629 2.16969 7.10099 2.16969Z" fill="white"/>
<path d="M25.6084 9.07959H11.2737V23.7462H25.6084V9.07959Z" fill="#E6E6E6"/>
<path d="M46.0691 9.07959H31.7344V23.7462H46.0691V9.07959Z" fill="#E6E6E6"/>
<path d="M66.5296 9.07959H52.1949V23.7462H66.5296V9.07959Z" fill="#E6E6E6"/>
<path d="M25.6084 26.4009H11.2737V41.0675H25.6084V26.4009Z" fill="#E6E6E6"/>
<path d="M46.0691 26.4009H31.7344V41.0675H46.0691V26.4009Z" fill="#E6E6E6"/>
<path d="M66.5296 26.4009H52.1949V41.0675H66.5296V26.4009Z" fill="#E6E6E6"/>
<path d="M35.199 30.1703L37.8181 29.1937L38.1227 34.0763C38.1227 34.0763 38.6709 35.5698 38.4882 36.1443C38.4882 36.1443 38.61 37.1208 38.3054 37.1783C38.0008 37.2357 37.1479 37.3506 37.0876 37.2931C37.0273 37.2356 37.0267 37.0633 37.0267 37.0633C37.0267 37.0633 36.4176 37.4654 36.3567 37.9249C36.3567 37.9249 33.7984 38.6716 33.7375 37.9823C33.6767 37.293 35.0166 36.7185 35.0166 36.7185L36.0521 35.225L35.199 30.1703Z" fill="white"/>
<path d="M40.7421 30.1703L43.3609 29.1937L43.6654 34.0763C43.6654 34.0763 44.2136 35.5698 44.0309 36.1443C44.0309 36.1443 44.1527 37.1208 43.8481 37.1783C43.5435 37.2357 42.6906 37.3506 42.6303 37.2931C42.57 37.2356 42.5694 37.0633 42.5694 37.0633C42.5694 37.0633 41.9603 37.4654 41.8994 37.9249C41.8994 37.9249 39.3412 38.6716 39.2803 37.9823C39.2194 37.293 40.5593 36.7185 40.5593 36.7185L41.5948 35.225L40.7421 30.1703Z" fill="white"/>
<path d="M40.9979 11.3153C40.9979 11.3153 40.4403 12.7849 41.0865 13.4476L40.5477 15.1934C40.5477 15.1934 42.4617 20.6085 41.9149 21.365C41.9149 21.365 39.8733 22.3276 35.7897 21.0211L37.4485 14.9527L37.2115 12.3913L37.5396 11.1879L38.2687 11.1196C38.2687 11.1196 37.8313 12.6668 38.6334 12.9075C39.4354 13.1482 40.2178 11.1583 40.2178 11.1583L40.9979 11.3153Z" fill="#3F3D56"/>
<path d="M15.2432 20.8019L15.947 21.0734L19.3059 16.9102L20.3615 21.7974L21.0653 21.6768C21.5168 17.4632 21.8852 13.1655 21.4332 11.1329L18.826 11.0272L17.6425 14.5876L17.0666 17.0011L15.2432 20.8019Z" fill="white"/>
<path d="M57.9575 11.0995C57.9575 11.0995 56.997 12.3587 57.0439 12.8669C57.0908 13.3751 57.6998 21.6598 57.6998 21.6598L59.1289 21.7261L58.7069 15.7611L59.0582 14.1483L59.925 21.6598L61.682 21.704L60.1125 11.9612L59.8079 11.0996L57.9575 11.0995Z" fill="white"/>
<path d="M63.386 31.3861C63.131 31.0975 62.6926 30.9415 62.2716 30.8572C62.2837 30.8211 60.9914 30.5692 60.9694 30.6211L60.4822 30.2551L58.985 30.9882L58.1438 30.448L57.753 30.5788C57.7689 30.5138 56.5399 30.7146 56.5399 30.7146C56.3051 30.7225 56.0053 30.7364 55.6696 30.7607C54.4941 30.846 54.4036 33.7172 54.4036 33.7172C54.9444 33.5086 55.5211 33.3947 56.1052 33.3812L56.4229 36.8153C58.0571 36.6831 59.7709 36.8369 61.5474 37.2132L62.3804 34.5138L64.3203 33.8023C64.3203 33.8023 63.9889 32.0683 63.386 31.3861Z" fill="#3F3D56"/>
<path d="M21.7566 29.7509C21.5464 29.5131 21.1853 29.3845 20.8384 29.315C20.8488 29.2852 19.7835 29.0778 19.7653 29.1206L19.3638 28.819L18.1304 29.4231L17.4372 28.9781L17.1153 29.0859C17.1284 29.0324 16.1157 29.1977 16.1157 29.1977C15.9228 29.2043 15.6752 29.2157 15.3987 29.2358C14.4301 29.3061 14.3556 31.6716 14.3556 31.6716C14.8012 31.4996 15.2764 31.4058 15.7578 31.3947L16.0195 38.3213C17.366 38.2123 18.7781 38.3391 20.2414 38.6492L20.9277 32.328L22.5262 31.7418C22.5262 31.7418 22.2532 30.3132 21.7566 29.7509Z" fill="white"/>
<path d="M90.3645 31.5946H97.2372V28.1264C97.2372 27.2669 96.8752 26.4426 96.2308 25.8349C95.5863 25.2271 94.7123 24.8857 93.8009 24.8857C92.8895 24.8857 92.0154 25.2271 91.371 25.8349C90.7265 26.4426 90.3645 27.2669 90.3645 28.1264V31.5946Z" fill="#2F2E41"/>
<path d="M87.2965 70.1816H85.8184L85.1151 64.804H87.2967L87.2965 70.1816Z" fill="#FFB6B6"/>
<path d="M87.6735 69.7264H84.7623C84.2703 69.7264 83.7984 69.9107 83.4505 70.2388C83.1026 70.5669 82.9072 71.0118 82.9071 71.4758V71.5327H87.6735V69.7264Z" fill="#2F2E41"/>
<path d="M104.967 68.3212L103.68 69.0065L100.264 64.6501L102.164 63.6387L104.967 68.3212Z" fill="#FFB6B6"/>
<path d="M105.058 67.75L102.523 69.0993C102.095 69.3274 101.78 69.7067 101.648 70.1538C101.516 70.6008 101.578 71.0789 101.82 71.483L101.849 71.5325L106 69.3227L105.058 67.75Z" fill="#2F2E41"/>
<path d="M95.5197 45.9986L95.6337 46.5365C95.6337 46.5365 95.9759 46.8592 95.8048 47.0206C95.6337 47.1819 95.6908 47.935 95.6908 47.935C95.7865 49.3082 97.6891 57.0246 98.0293 58.5316C98.0293 58.5316 100.653 60.1453 102.706 63.3188C104.76 66.4923 104.816 67.2992 104.816 67.2992L102.535 68.2138L96.8321 61.7052C96.8321 61.7052 95.2351 60.7908 94.6647 59.984C94.0943 59.1772 90.5574 50.8396 90.5574 50.8396L88.5607 59.5536C88.5607 59.5536 88.6748 62.7272 88.1615 64.7712C87.8459 66.0612 87.655 67.3754 87.5912 68.6979L84.9105 68.429C84.9105 68.429 85.0816 60.7908 85.3667 59.9839C85.3667 59.9839 84.1689 50.6783 86.5645 46.9668L88.4951 42.1128L90.386 41.4265L95.5197 45.9986Z" fill="#2F2E41"/>
<path d="M93.8363 25.7335C90.2375 25.7915 90.2381 30.8399 93.8363 30.8973C97.4349 30.8394 97.4344 25.7909 93.8363 25.7335Z" fill="#FFB8B8"/>
<path d="M91.0667 28.1814H91.6783L91.8448 27.7887L91.7615 28.1814H95.1069L94.9983 27.3596L95.8115 28.1814H96.6226V27.7361C96.6229 27.3921 96.5513 27.0514 96.4119 26.7335C96.2726 26.4156 96.0682 26.1266 95.8104 25.8832C95.5526 25.6398 95.2466 25.4466 94.9096 25.3147C94.5727 25.1829 94.2116 25.1149 93.8468 25.1146C93.482 25.1144 93.1207 25.1819 92.7836 25.3133C92.4465 25.4448 92.1401 25.6375 91.882 25.8806C91.6239 26.1237 91.419 26.4123 91.2792 26.7301C91.1394 27.0478 91.0673 27.3884 91.067 27.7324V27.7361L91.0667 28.1814Z" fill="#2F2E41"/>
<path d="M90.1253 32.4049L96.9257 32.4569L95.4889 46.2064C95.4889 46.2064 87.5359 45.8106 87.531 43.5213L88.276 41.4869L90.1253 32.4049Z" fill="#3F3D56"/>
<path d="M97.218 47.5356C97.1134 47.4148 97.0382 47.274 96.9977 47.1229C96.9571 46.9717 96.9522 46.8141 96.9832 46.661C97.0143 46.5079 97.0805 46.3631 97.1773 46.2367C97.2741 46.1104 97.3991 46.0056 97.5435 45.9298L97.248 43.5092L98.764 42.981L99.1304 46.405C99.2487 46.6421 99.2708 46.9119 99.1925 47.1633C99.1142 47.4148 98.941 47.6305 98.7056 47.7697C98.4701 47.9089 98.1888 47.9619 97.9147 47.9188C97.6406 47.8756 97.3927 47.7393 97.218 47.5356Z" fill="#FFB6B6"/>
<path d="M96.0315 33.6413L96.9263 32.4618C96.9263 32.4618 97.5387 32.3337 98.2621 33.1297C98.9856 33.9256 99.4076 43.8753 99.4076 43.8753L96.755 44.4438L95.1875 37.3938L96.0315 33.6413Z" fill="#3F3D56"/>
<path d="M81.0423 44.4311L81.2396 53.2706L87.3075 56.2948L98.3579 54.4338L98.6293 45.2453L91.624 42.919L81.0423 44.4311Z" fill="white"/>
<path d="M87.2916 56.3902L81.1439 53.3264L80.9435 44.3528L91.6334 42.8253L91.6562 42.8329L98.7281 45.1812L98.4526 54.5107L87.2916 56.3902ZM81.3352 53.215L87.3232 56.1993L98.2632 54.3569L98.5304 45.3094L91.6147 43.0128L81.1409 44.5094L81.3352 53.215Z" fill="#CACACA"/>
<path d="M87.172 46.8278L87.1483 46.8189L81.0065 44.516L81.078 44.3462L87.1962 46.6402L98.616 45.1548L98.6425 45.3358L87.172 46.8278Z" fill="#CACACA"/>
<path d="M87.281 46.7329L87.0872 46.7352L87.2105 56.2959L87.4043 56.2937L87.281 46.7329Z" fill="#CACACA"/>
<path d="M86.3959 46.3703L84.1819 45.5238L94.8401 43.9222L97.0541 44.7685L86.3959 46.3703Z" fill="#CACACA"/>
<path d="M81.0805 46.9953L81.0039 47.1632L83.5717 48.2058L83.6483 48.038L81.0805 46.9953Z" fill="#CACACA"/>
<path d="M82.2433 50.011L82.1667 50.1788L84.7345 51.2215L84.8111 51.0536L82.2433 50.011Z" fill="#6C63FF"/>
<path d="M47.2814 56.7119L47.4787 65.5514L53.5466 68.5755L64.597 66.7146L64.8684 57.5261L57.8632 55.1998L47.2814 56.7119Z" fill="white"/>
<path d="M53.5308 68.6709L47.3831 65.6071L47.1827 56.6335L57.8726 55.106L57.8954 55.1136L64.9673 57.4619L64.6918 66.7914L53.5308 68.6709ZM47.5744 65.4957L53.5624 68.48L64.5024 66.6376L64.7696 57.5901L57.8539 55.2935L47.3801 56.7901L47.5744 65.4957Z" fill="#CACACA"/>
<path d="M53.4112 59.1086L53.3875 59.0997L47.2457 56.7967L47.3172 56.627L53.4354 58.921L64.8552 57.4355L64.8817 57.6166L53.4112 59.1086Z" fill="#CACACA"/>
<path d="M53.5202 59.0136L53.3264 59.0159L53.4497 68.5766L53.6435 68.5744L53.5202 59.0136Z" fill="#CACACA"/>
<path d="M52.0988 58.4429L50.4211 57.8046L61.0793 56.2029L62.7568 56.8413L52.0988 58.4429Z" fill="#CACACA"/>
<path d="M47.3197 59.2761L47.2431 59.444L49.8109 60.4866L49.8875 60.3187L47.3197 59.2761Z" fill="#CACACA"/>
<path d="M48.4825 62.2917L48.4059 62.4596L50.9737 63.5022L51.0503 63.3344L48.4825 62.2917Z" fill="#6C63FF"/>
<path d="M57.8231 57.9238L58.0522 68.1852L65.096 71.6956L77.9238 69.5354L78.2387 58.869L70.1068 56.1686L57.8231 57.9238Z" fill="#FFC700"/>
<path d="M65.0776 71.8064L57.941 68.2498L57.7085 57.8329L70.1177 56.0598L70.1442 56.0685L78.3535 58.7946L78.0337 69.6246L65.0776 71.8064ZM58.1631 68.1205L65.1143 71.5848L77.8139 69.4461L78.124 58.9433L70.0959 56.2774L57.9376 58.0147L58.1631 68.1205Z" fill="#3F3D56"/>
<path d="M64.9387 60.7061L64.9112 60.6958L57.7814 58.0224L57.8645 57.8253L64.9667 60.4882L78.2233 58.7639L78.254 58.9741L64.9387 60.7061Z" fill="#3F3D56"/>
<path d="M65.0652 60.5959L64.8403 60.5984L64.9834 71.6969L65.2084 71.6943L65.0652 60.5959Z" fill="#3F3D56"/>
<path d="M63.5292 59.9382L61.4677 59.1923L73.84 57.3331L75.9017 58.0789L63.5292 59.9382Z" fill="#3F3D56"/>
<path d="M57.8675 60.9005L57.7785 61.0954L60.7593 62.3057L60.8483 62.1109L57.8675 60.9005Z" fill="#3F3D56"/>
<path d="M59.2173 64.4011L59.1283 64.596L62.1091 65.8063L62.1981 65.6115L59.2173 64.4011Z" fill="white"/>
<path d="M84.4826 45.8928C84.6322 45.8265 84.7646 45.7302 84.8705 45.6105C84.9763 45.4908 85.0531 45.3507 85.0953 45.2C85.1375 45.0493 85.1442 44.8917 85.1149 44.7383C85.0855 44.5849 85.0209 44.4395 84.9255 44.3122L86.3027 42.2506L85.1785 41.1558L83.2769 44.0929C83.0609 44.2582 82.9166 44.4926 82.8715 44.7515C82.8264 45.0104 82.8836 45.276 83.0322 45.4978C83.1808 45.7197 83.4105 45.8824 83.6778 45.9552C83.9452 46.028 84.2315 46.0059 84.4826 45.8929V45.8928Z" fill="#FFB6B6"/>
<path d="M91.1703 32.9468L90.1837 32.3337C90.1837 32.3337 89.4222 32.4947 88.6125 33.9636C87.8027 35.4325 84.537 41.9998 84.537 41.9998L85.8794 43.2847L89.4605 38.1326L91.1703 32.9468Z" fill="#3F3D56"/>
</g>
<defs>
<clipPath id="clip0_14_402">
<rect width="106" height="71.8065" fill="white"/>
</clipPath>
</defs>
</svg>
