<svg width="18" height="19" viewBox="0 0 18 19" fill="none" xmlns="http://www.w3.org/2000/svg">
<path d="M17.2204 9.6505C17.229 9.00994 16.8731 8.42121 16.2952 8.11221L2.8276 0.897729C2.22438 0.565332 1.5133 0.606169 0.944899 0.984602C0.366067 1.36941 0.0697962 2.28545 0.231606 2.94706L1.48886 8.08279C1.61793 8.60942 2.10134 8.98023 2.65749 8.97791L10.1521 8.95524C10.5359 8.94774 10.8472 9.25121 10.8395 9.62541C10.8383 9.99325 10.5317 10.2923 10.1479 10.2998L2.64607 10.3167C2.08993 10.3178 1.60415 10.6903 1.47173 11.2177L0.170018 16.3738C0.0119684 16.9831 0.192162 17.5914 0.633106 18.0213C0.684982 18.0719 0.743341 18.1288 0.801742 18.173C1.37278 18.6026 2.12063 18.6574 2.75914 18.3257L16.2724 11.1818C16.8522 10.882 17.2119 10.2911 17.2204 9.6505Z" fill="black"/>
</svg>
