<svg width="38" height="38" viewBox="0 0 38 38" fill="none" xmlns="http://www.w3.org/2000/svg">
<circle cx="19" cy="19" r="19" fill="#FFC700"/>
<path d="M31.2204 18.6505C31.229 18.0099 30.8731 17.4212 30.2952 17.1122L16.8276 9.89773C16.2244 9.56533 15.5133 9.60617 14.9449 9.9846C14.3661 10.3694 14.0698 11.2855 14.2316 11.9471L15.4889 17.0828C15.6179 17.6094 16.1013 17.9802 16.6575 17.9779L24.1521 17.9552C24.5359 17.9477 24.8472 18.2512 24.8395 18.6254C24.8383 18.9933 24.5317 19.2923 24.1479 19.2998L16.6461 19.3167C16.0899 19.3178 15.6042 19.6903 15.4717 20.2177L14.17 25.3738C14.012 25.9831 14.1922 26.5914 14.6331 27.0213C14.685 27.0719 14.7433 27.1288 14.8017 27.173C15.3728 27.6026 16.1206 27.6574 16.7591 27.3257L30.2724 20.1818C30.8522 19.882 31.2119 19.2911 31.2204 18.6505Z" fill="black"/>
</svg>
